# xmcd
#
# Track frame offsets: 
#        150
#        2631
#        19499
#        43630
#        60747
#        82319
#        105288
#        125777
#        144344
#        170540
#        187556
#        207773
#        230804
#        253355
#        273607
#
# Disc length: 3672 seconds
#
# Revision: 0
# Processed by: cddbd v1.5.2PL0 Copyright (c) Steve Scherf et al.
# Submitted via: ExactAudioCopy v0.99pb5
#
DISCID=d70e560f
DTITLE=Various Artist - Keke Loco Presents Affiliated
DYEAR=1997
DGENRE=Hip Hop
TTITLE0=Introlude
TTITLE1=Keke Loco, Vision, China Girl, Baby Dracc, Randy Blacc and Golci
TTITLE1=e Mac - Ain't Jokin
TTITLE2=True Blue, Keke Loco, Chilly Mac and Ton One - Revolution In Pro
TTITLE2=gress
TTITLE3=Squee Bastard - Dusty Riders ft. Baby Nook Dog
TTITLE4=School Boy - South Central Gangsta
TTITLE5=Keke Loco, TePri and Known 4 Kaos - Sex Violence $$$ and Murder ft
TTITLE5=Bamm, Jinks and Next Page
TTITLE6=D.E.R. - Cocc Yor Glocks
TTITLE7=Mr. Jinks - Eastside Westcoast
TTITLE8=Keke Loco, Jay Capone, Da Grench, Rhymes, Dree, RayMac, Joker,
TTITLE8=Mr. Jinks, TePri and Next Page - Affiliated: The Constituents
TTITLE9=Mr. Jinks - Ride 4 U (Long Version)
TTITLE10=True Blue - Loc'd Out ft. Keke Loco and D.E.R.
TTITLE11=Rhymes - Do Wrong ft. True Blue and Ton One
TTITLE12=The Crazy Locs - West Fonk ft. Fat Fat Loc and Lady Booo
TTITLE13=Comp-Tons Finest - BG
TTITLE14=The Constituents - Outrolude
EXTD=
EXTT0=
EXTT1=
EXTT2=
EXTT3=
EXTT4=
EXTT5=
EXTT6=
EXTT7=
EXTT8=
EXTT9=
EXTT10=
EXTT11=
EXTT12=
EXTT13=
EXTT14=
PLAYORDER=
